<svg xmlns="http://www.w3.org/2000/svg" width="1200" height="380" viewBox="0 0 1200 380" role="img" aria-label="Wildbeast — Site sobre animais selvagens">
  <defs>
    <linearGradient id="bg" x1="0" y1="0" x2="1" y2="1">
      <stop offset="0%" stop-color="#6a2fd0"/>
      <stop offset="100%" stop-color="#b07dfb"/>
    </linearGradient>
    <filter id="sombra" x="-20%" y="-20%" width="140%" height="140%">
      <feDropShadow dx="0" dy="10" stdDeviation="16" flood-color="#000000" flood-opacity=".28"/>
    </filter>
    <clipPath id="recorte"><rect width="428" height="252" rx="18"/></clipPath>
  </defs>

  <rect width="1200" height="380" rx="24" fill="url(#bg)"/>
  <circle cx="1105" cy="60" r="190" fill="#ffffff" opacity="0.08"/>
  <circle cx="110" cy="360" r="150" fill="#ffffff" opacity="0.064"/>

  <text x="72" y="148" font-family="system-ui,-apple-system,'Segoe UI',Roboto,sans-serif" font-size="52" font-weight="800" letter-spacing="-1" fill="#ffffff">Wildbeast</text>
  <text x="74" y="196" font-family="system-ui,-apple-system,'Segoe UI',Roboto,sans-serif" font-size="24" font-weight="600" fill="#ffffff">Site sobre animais selvagens</text>
  <text x="74" y="232" font-family="system-ui,-apple-system,'Segoe UI',Roboto,sans-serif" font-size="17" fill="rgba(255,255,255,.78)">HTML · CSS Grid · grid-template-areas · Flexbox</text>

  <g font-family="system-ui,-apple-system,'Segoe UI',Roboto,sans-serif" font-size="14" font-weight="600">
    <rect x="74" y="262" width="119" height="32" rx="16" fill="rgba(255,255,255,.18)"/>
    <circle cx="94" cy="278" r="4" fill="#ffffff"/><text x="106" y="283" fill="#ffffff">3 layouts</text>
    <rect x="203" y="262" width="127" height="32" rx="16" fill="rgba(255,255,255,.18)"/>
    <circle cx="223" cy="278" r="4" fill="#ffffff"/><text x="235" y="283" fill="#ffffff">Responsivo</text>
    <rect x="340" y="262" width="176" height="32" rx="16" fill="rgba(255,255,255,.18)"/>
    <circle cx="360" cy="278" r="4" fill="#ffffff"/><text x="372" y="283" fill="#ffffff">Projeto Origamid</text>
  </g>

  <g transform="translate(700,64)">
    <rect width="428" height="252" rx="18" fill="#0d1117" filter="url(#sombra)"/>
    <g clip-path="url(#recorte)">
    <rect width="428" height="252" rx="18" fill="#0d1117"/>
    <path d="M0 18a18 18 0 0 1 18-18h392a18 18 0 0 1 18 18v12H0z" fill="#161b22"/>
    <circle cx="22" cy="16" r="4.5" fill="#ff5f57"/><circle cx="38" cy="16" r="4.5" fill="#febc2e"/><circle cx="54" cy="16" r="4.5" fill="#28c840"/>
    <text x="241" y="20" text-anchor="middle" font-family="ui-monospace,SFMono-Regular,Menlo,Consolas,monospace,'Noto Color Emoji','Apple Color Emoji','Segoe UI Emoji'" font-size="11" fill="#7d8590">css/style.css</text>
    <g font-family="ui-monospace,SFMono-Regular,Menlo,Consolas,monospace,'Noto Color Emoji','Apple Color Emoji','Segoe UI Emoji'" font-size="13" fill="#c9d1d9">
    <text x="20" y="59.1" xml:space="preserve"><tspan fill="#f2cc60">.estrutura</tspan><tspan> {</tspan></text>
    <text x="20" y="79.25" xml:space="preserve"><tspan>  </tspan><tspan fill="#d2a8ff">display</tspan><tspan>: </tspan><tspan fill="#a5d6ff">grid</tspan><tspan>;</tspan></text>
    <text x="20" y="99.4" xml:space="preserve"><tspan>  </tspan><tspan fill="#d2a8ff">grid-template-columns</tspan><tspan>:</tspan></text>
    <text x="20" y="119.55" xml:space="preserve"><tspan>    </tspan><tspan fill="#a5d6ff">minmax(160px, 1fr) 3fr 300px</tspan><tspan>;</tspan></text>
    <text x="20" y="139.7" xml:space="preserve"><tspan>  </tspan><tspan fill="#d2a8ff">grid-template-areas</tspan><tspan>:</tspan></text>
    <text x="20" y="159.85" xml:space="preserve"><tspan>    </tspan><tspan fill="#7ee787">'header  header  header'</tspan></text>
    <text x="20" y="180" xml:space="preserve"><tspan>    </tspan><tspan fill="#7ee787">'sidenav content anuncios'</tspan></text>
    <text x="20" y="200.14999999999998" xml:space="preserve"><tspan>    </tspan><tspan fill="#7ee787">'footer  footer  footer'</tspan><tspan>;</tspan></text>
    <text x="20" y="220.29999999999998" xml:space="preserve"><tspan>}</tspan></text>
    </g>
    </g>
  </g>
</svg>
